<svg xmlns="http://www.w3.org/2000/svg" width="40" height="38" viewBox="0 0 40 38"><path fill="#fff" d="M7.344 9.345V5.07H2.51c-.056 1.15.055 3.166 1.168 4.53.818 1.006 2.096 1.596 3.805 1.759a14.603 14.603 0 01-.139-2.015zm0-8.074c0-.7.562-1.266 1.256-1.266h22.593a1.26 1.26 0 011.256 1.266v1.265h6.148c.596 0 1.111.423 1.23 1.011.037.184.88 4.622-1.566 7.646-1.438 1.777-3.643 2.7-6.557 2.745-1.614 4.8-5.683 8.346-10.563 8.865v8.82h3.882a1.26 1.26 0 011.257 1.267c0 .7-.562 1.266-1.257 1.266H14.87a1.26 1.26 0 01-1.256-1.266c0-.7.562-1.267 1.256-1.267h3.76v-8.822c-4.872-.53-8.93-4.073-10.54-8.867-2.82-.082-4.96-1.003-6.367-2.74C-.724 8.168.12 3.73.156 3.546a1.258 1.258 0 011.23-1.011h5.958zM32.45 9.345c0 .69-.048 1.368-.142 2.03 1.807-.135 3.15-.73 3.998-1.774 1.113-1.365 1.225-3.38 1.168-4.532H32.45zM9.857 2.538v6.807c0 6.06 4.504 10.99 10.041 10.99 5.535 0 10.038-4.93 10.038-10.99V2.538zm18.92 35.457H11.115a1.26 1.26 0 01-1.256-1.267c0-.7.562-1.266 1.256-1.266h17.662a1.26 1.26 0 011.256 1.266c0 .7-.562 1.267-1.256 1.267z"/></svg>