<svg xmlns="http://www.w3.org/2000/svg" width="40" height="40" viewBox="0 0 40 40"><g><g><path fill="#fff" d="M20 3.2C10.736 3.2 3.2 10.735 3.2 20c0 9.263 7.536 16.837 16.8 16.837 9.264 0 16.8-7.574 16.8-16.837 0-9.264-7.536-16.8-16.8-16.8 0 0 9.264 0 0 0zm0-2.4C30.604.8 39.2 9.395 39.2 20S30.604 39.2 20 39.2.8 30.603.8 20 9.396.8 20 .8zm0 6A1.2 1.2 0 0 1 21.2 8v11.512l5.664 5.665a1.2 1.2 0 0 1-1.697 1.697l-5.94-5.94a1.214 1.214 0 0 1-.088-.099 1.196 1.196 0 0 1-.34-.835V8A1.2 1.2 0 0 1 20 6.8z"/></g></g></svg>